<?xml version="1.0" encoding="UTF-8"?>
<svg xmlns="http://www.w3.org/2000/svg" width="800" height="800" viewBox="-400 -400 800 800" style="font-family: sans-serif; font-size: 10px;"><g><path d="M0,-62.5A62.5,62.5,0,1,1,-56.552,26.611L0,0Z" fill="#3498DB" stroke="#fff" stroke-width="1"><title>Commutative Algebra
68</title></path><path d="M-56.552,26.611A62.5,62.5,0,0,1,0,-62.5L0,0Z" fill="#E67E22" stroke="#fff" stroke-width="1"><title>Abstract Algebra
32</title></path><path d="M0,-125A125,125,0,0,1,121.073,31.086L60.536,15.543A62.5,62.5,0,0,0,0,-62.5Z" fill="#9B59B6" stroke="#fff" stroke-width="1"><title>Commutative Algebra / Ideal Theory
29</title></path><path d="M121.073,31.086A125,125,0,0,1,-15.667,124.014L-7.833,62.007A62.5,62.5,0,0,0,60.536,15.543Z" fill="#3498DB" stroke="#fff" stroke-width="1"><title>Commutative Algebra / Dimension Theory and Smoothness
23</title></path><path d="M-15.667,124.014A125,125,0,0,1,-113.103,53.222L-56.552,26.611A62.5,62.5,0,0,0,-7.833,62.007Z" fill="#27AE60" stroke="#fff" stroke-width="1"><title>Commutative Algebra / Other Topics
16</title></path><path d="M-113.103,53.222A125,125,0,0,1,-116.222,-46.016L-58.111,-23.008A62.5,62.5,0,0,0,-56.552,26.611Z" fill="#F1C40F" stroke="#fff" stroke-width="1"><title>Abstract Algebra / Field Theory
13</title></path><path d="M-116.222,-46.016A125,125,0,0,1,-73.473,-101.127L-36.737,-50.564A62.5,62.5,0,0,0,-58.111,-23.008Z" fill="#F39C12" stroke="#fff" stroke-width="1"><title>Abstract Algebra / Group Theory
9</title></path><path d="M-73.473,-101.127A125,125,0,0,1,0,-125L0,-62.5A62.5,62.5,0,0,0,-36.737,-50.564Z" fill="#E74C3C" stroke="#fff" stroke-width="1"><title>Abstract Algebra / Ring Theory
10</title></path><path d="M0,-250A250,250,0,0,1,133.957,-211.082L66.978,-105.541A125,125,0,0,0,0,-125Z" fill="#744389" stroke="#fff" stroke-width="1"><title>Commutative Algebra / Ideal Theory / Ideals and Modules
9</title></path><path d="M133.957,-211.082A250,250,0,0,1,171.137,-182.242L85.568,-91.121A125,125,0,0,0,66.978,-105.541Z" fill="#814a97" stroke="#fff" stroke-width="1"><title>Commutative Algebra / Ideal Theory / Localization and Decomposition of Ideals
3</title></path><path d="M171.137,-182.242A250,250,0,0,1,219.077,-120.438L109.538,-60.219A125,125,0,0,0,85.568,-91.121Z" fill="#8d51a6" stroke="#fff" stroke-width="1"><title>Commutative Algebra / Ideal Theory / Integral Dependence and the Nullstellensatz
5</title></path><path d="M219.077,-120.438A250,250,0,0,1,237.764,-77.254L118.882,-38.627A125,125,0,0,0,109.538,-60.219Z" fill="#9958b4" stroke="#fff" stroke-width="1"><title>Commutative Algebra / Ideal Theory / Noetherian rings and Chain Conditions
3</title></path><path d="M237.764,-77.254A250,250,0,0,1,242.146,-62.172L121.073,-31.086A125,125,0,0,0,118.882,-38.627Z" fill="#a65fc3" stroke="#fff" stroke-width="1"><title>Commutative Algebra / Ideal Theory / Dedekind Domains and DVRs
1</title></path><path d="M242.146,-62.172A250,250,0,0,1,242.146,62.172L121.073,31.086A125,125,0,0,0,121.073,-31.086Z" fill="#b266d1" stroke="#fff" stroke-width="1"><title>Commutative Algebra / Ideal Theory / Tensor Product and Flatness
8</title></path><path d="M242.146,62.172A250,250,0,0,1,219.077,120.438L109.538,60.219A125,125,0,0,0,121.073,31.086Z" fill="#2772a4" stroke="#fff" stroke-width="1"><title>Commutative Algebra / Dimension Theory and Smoothness / Smoothness and the Module of Differentials
4</title></path><path d="M219.077,120.438A250,250,0,0,1,159.356,192.628L79.678,96.314A125,125,0,0,0,109.538,60.219Z" fill="#2b7eb6" stroke="#fff" stroke-width="1"><title>Commutative Algebra / Dimension Theory and Smoothness / Heights and Dimensions
6</title></path><path d="M159.356,192.628A250,250,0,0,1,92.031,232.444L46.016,116.222A125,125,0,0,0,79.678,96.314Z" fill="#2f8ac7" stroke="#fff" stroke-width="1"><title>Commutative Algebra / Dimension Theory and Smoothness / Regular Sequences and Regular Local Rings
5</title></path><path d="M92.031,232.444A250,250,0,0,1,-31.333,248.029L-15.667,124.014A125,125,0,0,0,46.016,116.222Z" fill="#3396d9" stroke="#fff" stroke-width="1"><title>Commutative Algebra / Dimension Theory and Smoothness / Depth, Cohen-Macaulay Rings and Gorenstein rings
8</title></path><path d="M-31.333,248.029A250,250,0,0,1,-92.031,232.444L-46.016,116.222A125,125,0,0,0,-15.667,124.014Z" fill="#1d8348" stroke="#fff" stroke-width="1"><title>Commutative Algebra / Other Topics / Completions and Hensel's lemma
4</title></path><path d="M-92.031,232.444A250,250,0,0,1,-133.957,211.082L-66.978,105.541A125,125,0,0,0,-46.016,116.222Z" fill="#209050" stroke="#fff" stroke-width="1"><title>Commutative Algebra / Other Topics / Algebraic Number Theory and Valuation Theory
3</title></path><path d="M-133.957,211.082A250,250,0,0,1,-202.254,146.946L-101.127,73.473A125,125,0,0,0,-66.978,105.541Z" fill="#239e57" stroke="#fff" stroke-width="1"><title>Commutative Algebra / Other Topics / Algebraic and Arithmetic Dynamics
6</title></path><path d="M-202.254,146.946A250,250,0,0,1,-219.077,120.438L-109.538,60.219A125,125,0,0,0,-101.127,73.473Z" fill="#27ac5f" stroke="#fff" stroke-width="1"><title>Commutative Algebra / Other Topics / Homological Methods
2</title></path><path d="M-219.077,120.438A250,250,0,0,1,-226.207,106.445L-113.103,53.222A125,125,0,0,0,-109.538,60.219Z" fill="#2aba67" stroke="#fff" stroke-width="1"><title>Commutative Algebra / Other Topics / Noncommutative Algebras
1</title></path><path d="M-226.207,106.445A250,250,0,0,1,-232.444,92.031L-116.222,46.016A125,125,0,0,0,-113.103,53.222Z" fill="#b5930b" stroke="#fff" stroke-width="1"><title>Abstract Algebra / Field Theory / Field Extensions
1</title></path><path d="M-232.444,92.031A250,250,0,0,1,-237.764,-77.254L-118.882,-38.627A125,125,0,0,0,-116.222,46.016Z" fill="#c8a30c" stroke="#fff" stroke-width="1"><title>Abstract Algebra / Field Theory / Galois theory
11</title></path><path d="M-237.764,-77.254A250,250,0,0,1,-232.444,-92.031L-116.222,-46.016A125,125,0,0,0,-118.882,-38.627Z" fill="#dbb20e" stroke="#fff" stroke-width="1"><title>Abstract Algebra / Field Theory / Explicit Computations
1</title></path><path d="M-232.444,-92.031A250,250,0,0,1,-211.082,-133.957L-105.541,-66.978A125,125,0,0,0,-116.222,-46.016Z" fill="#b6750e" stroke="#fff" stroke-width="1"><title>Abstract Algebra / Group Theory / Subgroups and Quotient groups
3</title></path><path d="M-211.082,-133.957A250,250,0,0,1,-159.356,-192.628L-79.678,-96.314A125,125,0,0,0,-105.541,-66.978Z" fill="#ca810f" stroke="#fff" stroke-width="1"><title>Abstract Algebra / Group Theory / Group Actions and Sylow theorems
5</title></path><path d="M-159.356,-192.628A250,250,0,0,1,-146.946,-202.254L-73.473,-101.127A125,125,0,0,0,-79.678,-96.314Z" fill="#dd8e10" stroke="#fff" stroke-width="1"><title>Abstract Algebra / Group Theory / p-Groups, Nilpotent Groups and Solvable Groups
1</title></path><path d="M-146.946,-202.254A250,250,0,0,1,-106.445,-226.207L-53.222,-113.103A125,125,0,0,0,-73.473,-101.127Z" fill="#ad392d" stroke="#fff" stroke-width="1"><title>Abstract Algebra / Ring Theory / Basic Definitions and Examples
3</title></path><path d="M-106.445,-226.207A250,250,0,0,1,-46.845,-245.572L-23.423,-122.786A125,125,0,0,0,-53.222,-113.103Z" fill="#c03f32" stroke="#fff" stroke-width="1"><title>Abstract Algebra / Ring Theory / PID, ED and UFD
4</title></path><path d="M-46.845,-245.572A250,250,0,0,1,0,-250L0,-125A125,125,0,0,0,-23.423,-122.786Z" fill="#d24537" stroke="#fff" stroke-width="1"><title>Abstract Algebra / Ring Theory / Polynomials
3</title></path><text transform="rotate(32.40000000000002) translate(31.25,0) rotate(270)" dy="0.35em" text-anchor="middle" font-size="10px" style="pointer-events: none; fill: rgb(255, 255, 255); font-weight: bold; text-shadow: rgba(0, 0, 0, 0.8) 0.625px 0.625px 1.25px;"><tspan x="0" dy="0">Commutative</tspan><tspan x="0" dy="1.2em">Algebra</tspan></text><text transform="rotate(212.40000000000003) translate(31.25,0) rotate(90)" dy="0.35em" text-anchor="middle" font-size="10px" style="pointer-events: none; fill: rgb(255, 255, 255); font-weight: bold; text-shadow: rgba(0, 0, 0, 0.8) 0.625px 0.625px 1.25px;"><tspan x="0" dy="0">Abstract</tspan><tspan x="0" dy="1.2em">Algebra</tspan></text><text transform="rotate(-37.8) translate(93.75,0) rotate(90)" dy="0.35em" text-anchor="middle" font-size="8.75px" style="pointer-events: none; fill: rgb(255, 255, 255); font-weight: bold; text-shadow: rgba(0, 0, 0, 0.8) 0.625px 0.625px 1.25px;">Ideal Theory</text><text transform="rotate(55.80000000000001) translate(93.75,0) rotate(270)" dy="0.35em" text-anchor="middle" font-size="8.75px" style="pointer-events: none; fill: rgb(255, 255, 255); font-weight: bold; text-shadow: rgba(0, 0, 0, 0.8) 0.625px 0.625px 1.25px;"><tspan x="0" dy="0">Dimension Theory</tspan><tspan x="0" dy="1.2em">and Smoothness</tspan></text><text transform="rotate(126.00000000000003) translate(93.75,0) rotate(270)" dy="0.35em" text-anchor="middle" font-size="8.75px" style="pointer-events: none; fill: rgb(255, 255, 255); font-weight: bold; text-shadow: rgba(0, 0, 0, 0.8) 0.625px 0.625px 1.25px;">Other Topics</text><text transform="rotate(178.20000000000005) translate(93.75,0) rotate(270)" dy="0.35em" text-anchor="middle" font-size="8.75px" style="pointer-events: none; fill: rgb(255, 255, 255); font-weight: bold; text-shadow: rgba(0, 0, 0, 0.8) 0.625px 0.625px 1.25px;">Field Theory</text><text transform="rotate(217.80000000000007) translate(93.75,0) rotate(180)" dy="0.35em" text-anchor="middle" font-size="8.75px" style="pointer-events: none; fill: rgb(255, 255, 255); font-weight: bold; text-shadow: rgba(0, 0, 0, 0.8) 0.625px 0.625px 1.25px;">Group Theory</text><text transform="rotate(252.00000000000006) translate(93.75,0) rotate(90)" dy="0.35em" text-anchor="middle" font-size="8.75px" style="pointer-events: none; fill: rgb(255, 255, 255); font-weight: bold; text-shadow: rgba(0, 0, 0, 0.8) 0.625px 0.625px 1.25px;">Ring Theory</text><text transform="rotate(-73.8) translate(187.5,0) rotate(0)" dy="0.35em" text-anchor="middle" font-size="9.375px" style="pointer-events: none; fill: rgb(255, 255, 255); font-weight: bold; text-shadow: rgba(0, 0, 0, 0.8) 0.625px 0.625px 1.25px;">Ideals and Modules</text><text transform="rotate(-52.199999999999996) translate(187.5,0) rotate(0)" dy="0.35em" text-anchor="middle" font-size="5px" style="pointer-events: none; fill: rgb(255, 255, 255); font-weight: bold; text-shadow: rgba(0, 0, 0, 0.8) 0.625px 0.625px 1.25px;">Localization and Decomposition of Ideals</text><text transform="rotate(-37.79999999999998) translate(187.5,0) rotate(0)" dy="0.35em" text-anchor="middle" font-size="5.9765625px" style="pointer-events: none; fill: rgb(255, 255, 255); font-weight: bold; text-shadow: rgba(0, 0, 0, 0.8) 0.625px 0.625px 1.25px;"><tspan x="0" dy="0">Integral Dependence and</tspan><tspan x="0" dy="1.1em">the Nullstellensatz</tspan></text><text transform="rotate(-23.39999999999999) translate(187.5,0) rotate(0)" dy="0.35em" text-anchor="middle" font-size="5px" style="pointer-events: none; fill: rgb(255, 255, 255); font-weight: bold; text-shadow: rgba(0, 0, 0, 0.8) 0.625px 0.625px 1.25px;">Noetherian rings and Chain Conditions</text><text transform="rotate(-16.199999999999974) translate(187.5,0) rotate(0)" dy="0.35em" text-anchor="middle" font-size="5px" style="pointer-events: none; fill: rgb(255, 255, 255); font-weight: bold; text-shadow: rgba(0, 0, 0, 0.8) 0.625px 0.625px 1.25px;">Dedekind Domains and DVRs</text><text transform="rotate(1.4210854715202004e-14) translate(187.5,0) rotate(0)" dy="0.35em" text-anchor="middle" font-size="7.96875px" style="pointer-events: none; fill: rgb(255, 255, 255); font-weight: bold; text-shadow: rgba(0, 0, 0, 0.8) 0.625px 0.625px 1.25px;">Tensor Product and Flatness</text><text transform="rotate(21.599999999999994) translate(187.5,0) rotate(0)" dy="0.35em" text-anchor="middle" font-size="5px" style="pointer-events: none; fill: rgb(255, 255, 255); font-weight: bold; text-shadow: rgba(0, 0, 0, 0.8) 0.625px 0.625px 1.25px;"><tspan x="0" dy="0">Smoothness and the</tspan><tspan x="0" dy="1.1em">Module of Differentials</tspan></text><text transform="rotate(39.60000000000002) translate(187.5,0) rotate(0)" dy="0.35em" text-anchor="middle" font-size="9.375px" style="pointer-events: none; fill: rgb(255, 255, 255); font-weight: bold; text-shadow: rgba(0, 0, 0, 0.8) 0.625px 0.625px 1.25px;">Heights and Dimensions</text><text transform="rotate(59.400000000000034) translate(187.5,0) rotate(0)" dy="0.35em" text-anchor="middle" font-size="5.9765625px" style="pointer-events: none; fill: rgb(255, 255, 255); font-weight: bold; text-shadow: rgba(0, 0, 0, 0.8) 0.625px 0.625px 1.25px;"><tspan x="0" dy="0">Regular Sequences and</tspan><tspan x="0" dy="1.1em">Regular Local Rings</tspan></text><text transform="rotate(82.80000000000001) translate(187.5,0) rotate(0)" dy="0.35em" text-anchor="middle" font-size="5.9765625px" style="pointer-events: none; fill: rgb(255, 255, 255); font-weight: bold; text-shadow: rgba(0, 0, 0, 0.8) 0.625px 0.625px 1.25px;"><tspan x="0" dy="0">Depth, Cohen-Macaulay Rings</tspan><tspan x="0" dy="1.1em">and Gorenstein rings</tspan></text><text transform="rotate(104.4) translate(187.5,0) rotate(180)" dy="0.35em" text-anchor="middle" font-size="5.9765625px" style="pointer-events: none; fill: rgb(255, 255, 255); font-weight: bold; text-shadow: rgba(0, 0, 0, 0.8) 0.625px 0.625px 1.25px;">Completions and Hensel's lemma</text><text transform="rotate(117.00000000000006) translate(187.5,0) rotate(180)" dy="0.35em" text-anchor="middle" font-size="5px" style="pointer-events: none; fill: rgb(255, 255, 255); font-weight: bold; text-shadow: rgba(0, 0, 0, 0.8) 0.625px 0.625px 1.25px;"><tspan x="0" dy="0">Algebraic Number Theory</tspan><tspan x="0" dy="1.1em">and Valuation Theory</tspan></text><text transform="rotate(133.20000000000007) translate(187.5,0) rotate(180)" dy="0.35em" text-anchor="middle" font-size="7.96875px" style="pointer-events: none; fill: rgb(255, 255, 255); font-weight: bold; text-shadow: rgba(0, 0, 0, 0.8) 0.625px 0.625px 1.25px;"><tspan x="0" dy="0">Algebraic and</tspan><tspan x="0" dy="1.1em">Arithmetic Dynamics</tspan></text><text transform="rotate(147.60000000000008) translate(187.5,0) rotate(180)" dy="0.35em" text-anchor="middle" font-size="5px" style="pointer-events: none; fill: rgb(255, 255, 255); font-weight: bold; text-shadow: rgba(0, 0, 0, 0.8) 0.625px 0.625px 1.25px;">Homological Methods</text><text transform="rotate(153.00000000000006) translate(187.5,0) rotate(180)" dy="0.35em" text-anchor="middle" font-size="5px" style="pointer-events: none; fill: rgb(255, 255, 255); font-weight: bold; text-shadow: rgba(0, 0, 0, 0.8) 0.625px 0.625px 1.25px;">Noncommutative Algebras</text><text transform="rotate(156.60000000000005) translate(187.5,0) rotate(180)" dy="0.35em" text-anchor="middle" font-size="5px" style="pointer-events: none; fill: rgb(255, 255, 255); font-weight: bold; text-shadow: rgba(0, 0, 0, 0.8) 0.625px 0.625px 1.25px;">Field Extensions</text><text transform="rotate(178.20000000000005) translate(187.5,0) rotate(180)" dy="0.35em" text-anchor="middle" font-size="9.375px" style="pointer-events: none; fill: rgb(255, 255, 255); font-weight: bold; text-shadow: rgba(0, 0, 0, 0.8) 0.625px 0.625px 1.25px;">Galois theory</text><text transform="rotate(199.8) translate(187.5,0) rotate(180)" dy="0.35em" text-anchor="middle" font-size="5px" style="pointer-events: none; fill: rgb(255, 255, 255); font-weight: bold; text-shadow: rgba(0, 0, 0, 0.8) 0.625px 0.625px 1.25px;">Explicit Computations</text><text transform="rotate(207.00000000000006) translate(187.5,0) rotate(180)" dy="0.35em" text-anchor="middle" font-size="5.9765625px" style="pointer-events: none; fill: rgb(255, 255, 255); font-weight: bold; text-shadow: rgba(0, 0, 0, 0.8) 0.625px 0.625px 1.25px;">Subgroups and Quotient groups</text><text transform="rotate(221.40000000000003) translate(187.5,0) rotate(180)" dy="0.35em" text-anchor="middle" font-size="7.96875px" style="pointer-events: none; fill: rgb(255, 255, 255); font-weight: bold; text-shadow: rgba(0, 0, 0, 0.8) 0.625px 0.625px 1.25px;"><tspan x="0" dy="0">Group Actions</tspan><tspan x="0" dy="1.1em">and Sylow theorems</tspan></text><text transform="rotate(232.20000000000005) translate(187.5,0) rotate(180)" dy="0.35em" text-anchor="middle" font-size="5px" style="pointer-events: none; fill: rgb(255, 255, 255); font-weight: bold; text-shadow: rgba(0, 0, 0, 0.8) 0.625px 0.625px 1.25px;">p-Groups, Nilpotent Groups and Solvable Groups</text><text transform="rotate(239.40000000000003) translate(187.5,0) rotate(180)" dy="0.35em" text-anchor="middle" font-size="5.9765625px" style="pointer-events: none; fill: rgb(255, 255, 255); font-weight: bold; text-shadow: rgba(0, 0, 0, 0.8) 0.625px 0.625px 1.25px;">Basic Definitions and Examples</text><text transform="rotate(252.00000000000006) translate(187.5,0) rotate(180)" dy="0.35em" text-anchor="middle" font-size="7.03125px" style="pointer-events: none; fill: rgb(255, 255, 255); font-weight: bold; text-shadow: rgba(0, 0, 0, 0.8) 0.625px 0.625px 1.25px;">PID, ED and UFD</text><text transform="rotate(264.6) translate(187.5,0) rotate(180)" dy="0.35em" text-anchor="middle" font-size="7.03125px" style="pointer-events: none; fill: rgb(255, 255, 255); font-weight: bold; text-shadow: rgba(0, 0, 0, 0.8) 0.625px 0.625px 1.25px;">Polynomials</text></g></svg>